# xmcd CD database file
#
# Track frame offsets:
#	150
#	24639
#	43125
#	57468
#	78543
#	93541
#	105243
#	126754
#	141490
#	156782
#	170042
#	183756
#	200743
#	211328
#
# Disc length: 3052 seconds
#
# Revision: 0
# Processed by: cddbd v1.5.1PL0 Copyright (c) Steve Scherf et al.
# Submitted via: CDex 1.51
#
DISCID=ca0bea0e
DTITLE=Dave Peabody and Brendan Power - Two Trains Running
DYEAR=2000
DGENRE=Blues
TTITLE0=Broke Down Engine
TTITLE1=Careless Love
TTITLE2=Ride, Ride Mama
TTITLE3=Queen Bee
TTITLE4=Two Trains Running
TTITLE5=Crow Jane
TTITLE6=The Didgeriblues
TTITLE7=Bad Luck Dice
TTITLE8=I've Got The Blues, Can't Be Satisfied
TTITLE9=One Way Gal
TTITLE10=Long Tall Mama
TTITLE11=Losing Hand
TTITLE12=Mama Talk To Your Daughter
TTITLE13=Pearline
EXTD=YEAR: 2000
EXTT0=
EXTT1=
EXTT2=
EXTT3=
EXTT4=
EXTT5=
EXTT6=
EXTT7=
EXTT8=
EXTT9=
EXTT10=
EXTT11=
EXTT12=
EXTT13=
PLAYORDER=
